<svg viewBox="0 0 200 48" fill="none" xmlns="http://www.w3.org/2000/svg">
  <!-- Logo Icon -->
  <rect width="48" height="48" rx="12" fill="url(#full-logo-gradient)"/>
  <path d="M14 10h14l8 8v20a2 2 0 01-2 2H14a2 2 0 01-2-2V12a2 2 0 012-2z" fill="rgba(255,255,255,0.15)"/>
  <path d="M28 10v8h8" stroke="rgba(255,255,255,0.3)" stroke-width="1.5" fill="none"/>
  <path d="M17 32V18h3l6 9V18h3v14h-3l-6-9v9h-3z" fill="white"/>
  <rect x="17" y="34" width="14" height="2" rx="1" fill="rgba(255,255,255,0.5)"/>

  <!-- Brand Text -->
  <text x="60" y="33" font-family="Inter, -apple-system, BlinkMacSystemFont, sans-serif" font-size="26" font-weight="800" fill="url(#text-gradient)">NexInvo</text>

  <defs>
    <linearGradient id="full-logo-gradient" x1="0" y1="0" x2="48" y2="48">
      <stop stop-color="#6366f1"/>
      <stop offset="0.5" stop-color="#7c3aed"/>
      <stop offset="1" stop-color="#8b5cf6"/>
    </linearGradient>
    <linearGradient id="text-gradient" x1="60" y1="15" x2="180" y2="35">
      <stop stop-color="#6366f1"/>
      <stop offset="1" stop-color="#8b5cf6"/>
    </linearGradient>
  </defs>
</svg>
